<svg width="28" height="27" viewBox="0 0 28 27" fill="none" xmlns="http://www.w3.org/2000/svg">
<g id="Vector">
<path d="M21.4937 11.7604C21.4354 11.7791 21.4175 11.8572 21.4575 11.9198L21.7708 12.4098C22.7537 13.9469 20.3602 16.519 16.8252 18.7793C13.2895 21.0401 10.0396 22.2713 8.96826 20.5958L8.68936 20.1596C8.63457 20.0739 8.52787 20.0523 8.47296 20.1137C6.71295 22.0625 5.96603 23.8713 6.80545 25.1841C8.33622 27.5782 13.5695 25.8791 19.1026 22.3412C24.6357 18.8034 28.3923 14.7947 26.8433 12.372C25.989 11.036 24.0183 10.9621 21.4937 11.7604Z" fill="white" fill-opacity="0.4"/>
<path fill-rule="evenodd" clip-rule="evenodd" d="M20.9422 11.669C21.4849 13.2357 19.5475 15.3364 16.0118 17.5972C12.4761 19.8579 9.98831 20.7411 8.4512 19.1514C6.30692 14.9574 1.13994 10.77 1.13994 10.77C0.0686006 9.09442 3.45183 5.72333 6.98754 3.4626C10.5226 1.20232 15.4449 -0.333548 16.4277 1.20353C16.4277 1.20353 18.3344 8.50041 20.9422 11.669ZM14.6049 3.63852C14.2842 3.51293 13.3266 5.27527 9.79597 7.41542C6.26533 9.55558 3.86915 9.8523 3.87375 10.0558C3.88399 10.5086 7.39195 10.3378 10.8967 7.99627C14.111 5.84881 14.9255 3.76412 14.6049 3.63852Z" fill="white" fill-opacity="0.4"/>
</g>
</svg>
